<mxfile host="app.diagrams.net" agent="Mozilla/5.0 (Windows NT 10.0; Win64; x64; rv:134.0) Gecko/20100101 Firefox/134.0" version="24.8.6">
  <diagram name="Page-1" id="g-Nfy8QSHZynBoJCizML">
    <mxGraphModel dx="2074" dy="1114" grid="1" gridSize="10" guides="1" tooltips="1" connect="1" arrows="1" fold="1" page="1" pageScale="1" pageWidth="4000" pageHeight="1920" math="0" shadow="0">
      <root>
        <mxCell id="0" />
        <mxCell id="1" parent="0" />
        <mxCell id="qnQCh34TtS-d3TQlevy9-131" style="edgeStyle=orthogonalEdgeStyle;rounded=0;orthogonalLoop=1;jettySize=auto;html=1;entryX=0.5;entryY=1;entryDx=0;entryDy=0;" parent="1" source="qnQCh34TtS-d3TQlevy9-123" target="qnQCh34TtS-d3TQlevy9-12" edge="1">
          <mxGeometry relative="1" as="geometry">
            <Array as="points">
              <mxPoint x="360" y="910" />
              <mxPoint x="780" y="910" />
            </Array>
          </mxGeometry>
        </mxCell>
        <mxCell id="qnQCh34TtS-d3TQlevy9-123" value="&lt;p style=&quot;line-height: 60%;&quot;&gt;&lt;br&gt;&lt;/p&gt;&lt;p style=&quot;line-height: 60%;&quot;&gt;RAM0 Enable&lt;br&gt;&lt;font style=&quot;font-size: 8px;&quot;&gt;(AND Gate)&lt;br&gt;&lt;/font&gt;&lt;/p&gt;" style="rounded=0;whiteSpace=wrap;html=1;" parent="1" vertex="1">
          <mxGeometry x="295" y="750" width="120" height="60" as="geometry" />
        </mxCell>
        <mxCell id="qnQCh34TtS-d3TQlevy9-135" style="edgeStyle=orthogonalEdgeStyle;rounded=0;orthogonalLoop=1;jettySize=auto;html=1;entryX=0.5;entryY=1;entryDx=0;entryDy=0;" parent="1" source="qnQCh34TtS-d3TQlevy9-122" target="qnQCh34TtS-d3TQlevy9-134" edge="1">
          <mxGeometry relative="1" as="geometry">
            <Array as="points">
              <mxPoint x="215" y="920" />
              <mxPoint x="1020" y="920" />
            </Array>
          </mxGeometry>
        </mxCell>
        <mxCell id="qnQCh34TtS-d3TQlevy9-122" value="&lt;p style=&quot;line-height: 60%;&quot;&gt;&lt;br&gt;&lt;/p&gt;&lt;p style=&quot;line-height: 60%;&quot;&gt;ROM Enable&lt;br&gt;&lt;font style=&quot;font-size: 8px;&quot;&gt;(AND Gate)&lt;br&gt;&lt;/font&gt;&lt;/p&gt;" style="rounded=0;whiteSpace=wrap;html=1;" parent="1" vertex="1">
          <mxGeometry x="155" y="750" width="120" height="60" as="geometry" />
        </mxCell>
        <mxCell id="qnQCh34TtS-d3TQlevy9-1" value="Motorolla 68000" style="rounded=0;whiteSpace=wrap;html=1;fillColor=#ffe6cc;strokeColor=#d79b00;" parent="1" vertex="1">
          <mxGeometry x="1240" y="720" width="400" height="80" as="geometry" />
        </mxCell>
        <mxCell id="qnQCh34TtS-d3TQlevy9-2" value="" style="endArrow=none;html=1;rounded=0;" parent="1" edge="1">
          <mxGeometry width="50" height="50" relative="1" as="geometry">
            <mxPoint x="520" y="640" as="sourcePoint" />
            <mxPoint x="1440" y="640" as="targetPoint" />
          </mxGeometry>
        </mxCell>
        <mxCell id="qnQCh34TtS-d3TQlevy9-3" value="Address Bus&lt;br&gt;" style="edgeLabel;html=1;align=center;verticalAlign=middle;resizable=0;points=[];" parent="qnQCh34TtS-d3TQlevy9-2" vertex="1" connectable="0">
          <mxGeometry y="4" relative="1" as="geometry">
            <mxPoint x="-20" as="offset" />
          </mxGeometry>
        </mxCell>
        <mxCell id="qnQCh34TtS-d3TQlevy9-4" value="" style="endArrow=none;html=1;rounded=0;" parent="1" edge="1">
          <mxGeometry width="50" height="50" relative="1" as="geometry">
            <mxPoint x="620" y="880" as="sourcePoint" />
            <mxPoint x="1440" y="880" as="targetPoint" />
          </mxGeometry>
        </mxCell>
        <mxCell id="qnQCh34TtS-d3TQlevy9-5" value="Data Bus" style="edgeLabel;html=1;align=center;verticalAlign=middle;resizable=0;points=[];" parent="qnQCh34TtS-d3TQlevy9-4" vertex="1" connectable="0">
          <mxGeometry y="4" relative="1" as="geometry">
            <mxPoint x="-10" as="offset" />
          </mxGeometry>
        </mxCell>
        <mxCell id="qnQCh34TtS-d3TQlevy9-11" value="512k RAM Chip (AS6C4008)" style="rounded=0;whiteSpace=wrap;html=1;fillColor=#dae8fc;strokeColor=#6c8ebf;" parent="1" vertex="1">
          <mxGeometry x="760" y="720" width="200" height="80" as="geometry" />
        </mxCell>
        <mxCell id="qnQCh34TtS-d3TQlevy9-12" value="&lt;div style=&quot;line-height: 80%; font-size: 7px;&quot; align=&quot;center&quot;&gt;&lt;font style=&quot;font-size: 7px;&quot;&gt;Chip Enable&lt;/font&gt;&lt;br&gt;&lt;/div&gt;" style="rounded=0;whiteSpace=wrap;html=1;strokeColor=default;align=left;" parent="1" vertex="1">
          <mxGeometry x="760" y="780" width="40" height="20" as="geometry" />
        </mxCell>
        <mxCell id="qnQCh34TtS-d3TQlevy9-13" value="512k RAM Chip (AS6C4008)" style="rounded=0;whiteSpace=wrap;html=1;fillColor=#dae8fc;strokeColor=#6c8ebf;" parent="1" vertex="1">
          <mxGeometry x="520" y="720" width="200" height="80" as="geometry" />
        </mxCell>
        <mxCell id="qnQCh34TtS-d3TQlevy9-14" value="&lt;div style=&quot;line-height: 80%; font-size: 7px;&quot; align=&quot;center&quot;&gt;&lt;font style=&quot;font-size: 7px;&quot;&gt;Chip Enable&lt;/font&gt;&lt;br&gt;&lt;/div&gt;" style="rounded=0;whiteSpace=wrap;html=1;strokeColor=default;align=left;" parent="1" vertex="1">
          <mxGeometry x="520" y="780" width="40" height="20" as="geometry" />
        </mxCell>
        <mxCell id="qnQCh34TtS-d3TQlevy9-19" value="Debug LEDs" style="rounded=0;whiteSpace=wrap;html=1;" parent="1" vertex="1">
          <mxGeometry x="1240" y="920" width="160" height="40" as="geometry" />
        </mxCell>
        <mxCell id="qnQCh34TtS-d3TQlevy9-21" value="Debug LEDs" style="rounded=0;whiteSpace=wrap;html=1;" parent="1" vertex="1">
          <mxGeometry x="1240" y="560" width="160" height="40" as="geometry" />
        </mxCell>
        <mxCell id="qnQCh34TtS-d3TQlevy9-24" value="" style="endArrow=classic;startArrow=classic;html=1;rounded=0;entryX=0.5;entryY=1;entryDx=0;entryDy=0;" parent="1" target="qnQCh34TtS-d3TQlevy9-13" edge="1">
          <mxGeometry width="50" height="50" relative="1" as="geometry">
            <mxPoint x="620" y="880" as="sourcePoint" />
            <mxPoint x="775" y="710" as="targetPoint" />
          </mxGeometry>
        </mxCell>
        <mxCell id="qnQCh34TtS-d3TQlevy9-25" value="" style="endArrow=classic;startArrow=classic;html=1;rounded=0;entryX=0.5;entryY=1;entryDx=0;entryDy=0;" parent="1" target="qnQCh34TtS-d3TQlevy9-11" edge="1">
          <mxGeometry width="50" height="50" relative="1" as="geometry">
            <mxPoint x="860" y="880" as="sourcePoint" />
            <mxPoint x="864.86" y="800" as="targetPoint" />
          </mxGeometry>
        </mxCell>
        <mxCell id="qnQCh34TtS-d3TQlevy9-27" value="" style="endArrow=classic;startArrow=classic;html=1;rounded=0;exitX=0.5;exitY=0;exitDx=0;exitDy=0;" parent="1" edge="1" source="qnQCh34TtS-d3TQlevy9-1">
          <mxGeometry width="50" height="50" relative="1" as="geometry">
            <mxPoint x="1160" y="610" as="sourcePoint" />
            <mxPoint x="1440" y="640" as="targetPoint" />
          </mxGeometry>
        </mxCell>
        <mxCell id="qnQCh34TtS-d3TQlevy9-28" value="" style="endArrow=classic;startArrow=classic;html=1;rounded=0;entryX=0.5;entryY=1;entryDx=0;entryDy=0;" parent="1" target="qnQCh34TtS-d3TQlevy9-1" edge="1">
          <mxGeometry width="50" height="50" relative="1" as="geometry">
            <mxPoint x="1440" y="880" as="sourcePoint" />
            <mxPoint x="1055" y="690" as="targetPoint" />
          </mxGeometry>
        </mxCell>
        <mxCell id="qnQCh34TtS-d3TQlevy9-29" value="" style="endArrow=classic;html=1;rounded=0;entryX=0.5;entryY=1;entryDx=0;entryDy=0;" parent="1" target="qnQCh34TtS-d3TQlevy9-21" edge="1">
          <mxGeometry width="50" height="50" relative="1" as="geometry">
            <mxPoint x="1320" y="640" as="sourcePoint" />
            <mxPoint x="1065" y="590" as="targetPoint" />
          </mxGeometry>
        </mxCell>
        <mxCell id="qnQCh34TtS-d3TQlevy9-31" value="" style="endArrow=classic;html=1;rounded=0;entryX=0.5;entryY=0;entryDx=0;entryDy=0;" parent="1" target="qnQCh34TtS-d3TQlevy9-19" edge="1">
          <mxGeometry width="50" height="50" relative="1" as="geometry">
            <mxPoint x="1320" y="880" as="sourcePoint" />
            <mxPoint x="1095" y="770" as="targetPoint" />
          </mxGeometry>
        </mxCell>
        <mxCell id="qnQCh34TtS-d3TQlevy9-93" style="edgeStyle=orthogonalEdgeStyle;rounded=0;orthogonalLoop=1;jettySize=auto;html=1;entryX=0.5;entryY=0;entryDx=0;entryDy=0;" parent="1" source="qnQCh34TtS-d3TQlevy9-32" target="qnQCh34TtS-d3TQlevy9-90" edge="1">
          <mxGeometry relative="1" as="geometry">
            <Array as="points">
              <mxPoint x="85" y="400" />
              <mxPoint x="240" y="400" />
            </Array>
          </mxGeometry>
        </mxCell>
        <mxCell id="qnQCh34TtS-d3TQlevy9-101" style="edgeStyle=orthogonalEdgeStyle;rounded=0;orthogonalLoop=1;jettySize=auto;html=1;entryX=0.5;entryY=0;entryDx=0;entryDy=0;" parent="1" source="qnQCh34TtS-d3TQlevy9-32" target="qnQCh34TtS-d3TQlevy9-99" edge="1">
          <mxGeometry relative="1" as="geometry">
            <Array as="points">
              <mxPoint x="85" y="510" />
            </Array>
          </mxGeometry>
        </mxCell>
        <mxCell id="qnQCh34TtS-d3TQlevy9-32" value="&lt;p align=&quot;justify&quot; style=&quot;line-height: 120%; font-size: 8px;&quot;&gt;&lt;font style=&quot;font-size: 8px;&quot;&gt;0&lt;/font&gt;&lt;/p&gt;" style="rounded=0;whiteSpace=wrap;html=1;fillColor=#e1d5e7;strokeColor=#9673a6;" parent="1" vertex="1">
          <mxGeometry x="80" y="350" width="10" height="20" as="geometry" />
        </mxCell>
        <mxCell id="qnQCh34TtS-d3TQlevy9-35" value="&lt;p align=&quot;justify&quot; style=&quot;line-height: 120%; font-size: 8px;&quot;&gt;&lt;font style=&quot;font-size: 8px;&quot;&gt;0&lt;/font&gt;&lt;/p&gt;" style="rounded=0;whiteSpace=wrap;html=1;fillColor=#e1d5e7;strokeColor=#9673a6;" parent="1" vertex="1">
          <mxGeometry x="90" y="350" width="10" height="20" as="geometry" />
        </mxCell>
        <mxCell id="qnQCh34TtS-d3TQlevy9-36" value="&lt;p align=&quot;justify&quot; style=&quot;line-height: 120%; font-size: 8px;&quot;&gt;&lt;font style=&quot;font-size: 8px;&quot;&gt;0&lt;/font&gt;&lt;/p&gt;" style="rounded=0;whiteSpace=wrap;html=1;fillColor=#f5f5f5;strokeColor=#666666;fontColor=#333333;" parent="1" vertex="1">
          <mxGeometry x="100" y="350" width="10" height="20" as="geometry" />
        </mxCell>
        <mxCell id="qnQCh34TtS-d3TQlevy9-108" style="edgeStyle=orthogonalEdgeStyle;rounded=0;orthogonalLoop=1;jettySize=auto;html=1;entryX=0.5;entryY=0;entryDx=0;entryDy=0;" parent="1" source="qnQCh34TtS-d3TQlevy9-37" target="qnQCh34TtS-d3TQlevy9-107" edge="1">
          <mxGeometry relative="1" as="geometry">
            <Array as="points">
              <mxPoint x="115" y="440" />
              <mxPoint x="200" y="440" />
              <mxPoint x="200" y="640" />
              <mxPoint x="183" y="640" />
            </Array>
          </mxGeometry>
        </mxCell>
        <mxCell id="qnQCh34TtS-d3TQlevy9-121" style="edgeStyle=orthogonalEdgeStyle;rounded=0;orthogonalLoop=1;jettySize=auto;html=1;entryX=0.5;entryY=0;entryDx=0;entryDy=0;" parent="1" source="qnQCh34TtS-d3TQlevy9-37" target="qnQCh34TtS-d3TQlevy9-118" edge="1">
          <mxGeometry relative="1" as="geometry">
            <Array as="points">
              <mxPoint x="115" y="440" />
              <mxPoint x="20" y="440" />
              <mxPoint x="20" y="650" />
              <mxPoint x="108" y="650" />
            </Array>
          </mxGeometry>
        </mxCell>
        <mxCell id="qnQCh34TtS-d3TQlevy9-37" value="&lt;p align=&quot;justify&quot; style=&quot;line-height: 120%; font-size: 8px;&quot;&gt;&lt;font style=&quot;font-size: 8px;&quot;&gt;0&lt;/font&gt;&lt;/p&gt;" style="rounded=0;whiteSpace=wrap;html=1;fillColor=#e1d5e7;strokeColor=#9673a6;" parent="1" vertex="1">
          <mxGeometry x="110" y="350" width="10" height="20" as="geometry" />
        </mxCell>
        <mxCell id="qnQCh34TtS-d3TQlevy9-92" style="edgeStyle=orthogonalEdgeStyle;rounded=0;orthogonalLoop=1;jettySize=auto;html=1;entryX=0.5;entryY=0;entryDx=0;entryDy=0;" parent="1" source="qnQCh34TtS-d3TQlevy9-38" target="qnQCh34TtS-d3TQlevy9-91" edge="1">
          <mxGeometry relative="1" as="geometry">
            <Array as="points">
              <mxPoint x="125" y="390" />
              <mxPoint x="310" y="390" />
            </Array>
          </mxGeometry>
        </mxCell>
        <mxCell id="qnQCh34TtS-d3TQlevy9-98" style="edgeStyle=orthogonalEdgeStyle;rounded=0;orthogonalLoop=1;jettySize=auto;html=1;entryX=0.5;entryY=0;entryDx=0;entryDy=0;" parent="1" source="qnQCh34TtS-d3TQlevy9-38" target="qnQCh34TtS-d3TQlevy9-97" edge="1">
          <mxGeometry relative="1" as="geometry" />
        </mxCell>
        <mxCell id="qnQCh34TtS-d3TQlevy9-38" value="&lt;p align=&quot;justify&quot; style=&quot;line-height: 120%; font-size: 8px;&quot;&gt;&lt;font style=&quot;font-size: 8px;&quot;&gt;0&lt;/font&gt;&lt;/p&gt;" style="rounded=0;whiteSpace=wrap;html=1;fillColor=#e1d5e7;strokeColor=#9673a6;" parent="1" vertex="1">
          <mxGeometry x="120" y="350" width="10" height="20" as="geometry" />
        </mxCell>
        <mxCell id="qnQCh34TtS-d3TQlevy9-39" value="&lt;p align=&quot;justify&quot; style=&quot;line-height: 120%; font-size: 8px;&quot;&gt;&lt;font style=&quot;font-size: 8px;&quot;&gt;0&lt;/font&gt;&lt;/p&gt;" style="rounded=0;whiteSpace=wrap;html=1;fillColor=#d5e8d4;strokeColor=#82b366;" parent="1" vertex="1">
          <mxGeometry x="130" y="350" width="10" height="20" as="geometry" />
        </mxCell>
        <mxCell id="qnQCh34TtS-d3TQlevy9-40" value="&lt;p align=&quot;justify&quot; style=&quot;line-height: 120%; font-size: 8px;&quot;&gt;&lt;font style=&quot;font-size: 8px;&quot;&gt;0&lt;/font&gt;&lt;/p&gt;" style="rounded=0;whiteSpace=wrap;html=1;fillColor=#d5e8d4;strokeColor=#82b366;" parent="1" vertex="1">
          <mxGeometry x="140" y="350" width="10" height="20" as="geometry" />
        </mxCell>
        <mxCell id="qnQCh34TtS-d3TQlevy9-41" value="&lt;p align=&quot;justify&quot; style=&quot;line-height: 120%; font-size: 8px;&quot;&gt;&lt;font style=&quot;font-size: 8px;&quot;&gt;0&lt;/font&gt;&lt;/p&gt;" style="rounded=0;whiteSpace=wrap;html=1;fillColor=#d5e8d4;strokeColor=#82b366;" parent="1" vertex="1">
          <mxGeometry x="150" y="350" width="10" height="20" as="geometry" />
        </mxCell>
        <mxCell id="qnQCh34TtS-d3TQlevy9-42" value="&lt;p align=&quot;justify&quot; style=&quot;line-height: 120%; font-size: 8px;&quot;&gt;&lt;font style=&quot;font-size: 8px;&quot;&gt;0&lt;/font&gt;&lt;/p&gt;" style="rounded=0;whiteSpace=wrap;html=1;fillColor=#d5e8d4;strokeColor=#82b366;" parent="1" vertex="1">
          <mxGeometry x="160" y="350" width="10" height="20" as="geometry" />
        </mxCell>
        <mxCell id="qnQCh34TtS-d3TQlevy9-43" value="&lt;p align=&quot;justify&quot; style=&quot;line-height: 120%; font-size: 8px;&quot;&gt;&lt;font style=&quot;font-size: 8px;&quot;&gt;0&lt;/font&gt;&lt;/p&gt;" style="rounded=0;whiteSpace=wrap;html=1;fillColor=#d5e8d4;strokeColor=#82b366;" parent="1" vertex="1">
          <mxGeometry x="170" y="350" width="10" height="20" as="geometry" />
        </mxCell>
        <mxCell id="qnQCh34TtS-d3TQlevy9-44" value="&lt;p align=&quot;justify&quot; style=&quot;line-height: 120%; font-size: 8px;&quot;&gt;&lt;font style=&quot;font-size: 8px;&quot;&gt;0&lt;/font&gt;&lt;/p&gt;" style="rounded=0;whiteSpace=wrap;html=1;fillColor=#d5e8d4;strokeColor=#82b366;" parent="1" vertex="1">
          <mxGeometry x="180" y="350" width="10" height="20" as="geometry" />
        </mxCell>
        <mxCell id="qnQCh34TtS-d3TQlevy9-45" value="&lt;p align=&quot;justify&quot; style=&quot;line-height: 120%; font-size: 8px;&quot;&gt;&lt;font style=&quot;font-size: 8px;&quot;&gt;0&lt;/font&gt;&lt;/p&gt;" style="rounded=0;whiteSpace=wrap;html=1;fillColor=#d5e8d4;strokeColor=#82b366;" parent="1" vertex="1">
          <mxGeometry x="190" y="350" width="10" height="20" as="geometry" />
        </mxCell>
        <mxCell id="qnQCh34TtS-d3TQlevy9-46" value="&lt;p align=&quot;justify&quot; style=&quot;line-height: 120%; font-size: 8px;&quot;&gt;&lt;font style=&quot;font-size: 8px;&quot;&gt;0&lt;/font&gt;&lt;/p&gt;" style="rounded=0;whiteSpace=wrap;html=1;fillColor=#d5e8d4;strokeColor=#82b366;" parent="1" vertex="1">
          <mxGeometry x="200" y="350" width="10" height="20" as="geometry" />
        </mxCell>
        <mxCell id="qnQCh34TtS-d3TQlevy9-47" value="&lt;p align=&quot;justify&quot; style=&quot;line-height: 120%; font-size: 8px;&quot;&gt;&lt;font style=&quot;font-size: 8px;&quot;&gt;0&lt;/font&gt;&lt;/p&gt;" style="rounded=0;whiteSpace=wrap;html=1;fillColor=#d5e8d4;strokeColor=#82b366;" parent="1" vertex="1">
          <mxGeometry x="210" y="350" width="10" height="20" as="geometry" />
        </mxCell>
        <mxCell id="qnQCh34TtS-d3TQlevy9-48" value="&lt;p align=&quot;justify&quot; style=&quot;line-height: 120%; font-size: 8px;&quot;&gt;&lt;font style=&quot;font-size: 8px;&quot;&gt;0&lt;/font&gt;&lt;/p&gt;" style="rounded=0;whiteSpace=wrap;html=1;fillColor=#d5e8d4;strokeColor=#82b366;" parent="1" vertex="1">
          <mxGeometry x="220" y="350" width="10" height="20" as="geometry" />
        </mxCell>
        <mxCell id="qnQCh34TtS-d3TQlevy9-49" value="&lt;p align=&quot;justify&quot; style=&quot;line-height: 120%; font-size: 8px;&quot;&gt;&lt;font style=&quot;font-size: 8px;&quot;&gt;0&lt;/font&gt;&lt;/p&gt;" style="rounded=0;whiteSpace=wrap;html=1;fillColor=#d5e8d4;strokeColor=#82b366;" parent="1" vertex="1">
          <mxGeometry x="230" y="350" width="10" height="20" as="geometry" />
        </mxCell>
        <mxCell id="qnQCh34TtS-d3TQlevy9-50" value="&lt;p align=&quot;justify&quot; style=&quot;line-height: 120%; font-size: 8px;&quot;&gt;&lt;font style=&quot;font-size: 8px;&quot;&gt;0&lt;/font&gt;&lt;/p&gt;" style="rounded=0;whiteSpace=wrap;html=1;fillColor=#d5e8d4;strokeColor=#82b366;" parent="1" vertex="1">
          <mxGeometry x="240" y="350" width="10" height="20" as="geometry" />
        </mxCell>
        <mxCell id="qnQCh34TtS-d3TQlevy9-51" value="&lt;p align=&quot;justify&quot; style=&quot;line-height: 120%; font-size: 8px;&quot;&gt;&lt;font style=&quot;font-size: 8px;&quot;&gt;0&lt;/font&gt;&lt;/p&gt;" style="rounded=0;whiteSpace=wrap;html=1;fillColor=#d5e8d4;strokeColor=#82b366;" parent="1" vertex="1">
          <mxGeometry x="250" y="350" width="10" height="20" as="geometry" />
        </mxCell>
        <mxCell id="qnQCh34TtS-d3TQlevy9-52" value="&lt;p align=&quot;justify&quot; style=&quot;line-height: 120%; font-size: 8px;&quot;&gt;&lt;font style=&quot;font-size: 8px;&quot;&gt;0&lt;/font&gt;&lt;/p&gt;" style="rounded=0;whiteSpace=wrap;html=1;fillColor=#d5e8d4;strokeColor=#82b366;" parent="1" vertex="1">
          <mxGeometry x="260" y="350" width="10" height="20" as="geometry" />
        </mxCell>
        <mxCell id="qnQCh34TtS-d3TQlevy9-53" value="&lt;p align=&quot;justify&quot; style=&quot;line-height: 120%; font-size: 8px;&quot;&gt;&lt;font style=&quot;font-size: 8px;&quot;&gt;0&lt;/font&gt;&lt;/p&gt;" style="rounded=0;whiteSpace=wrap;html=1;fillColor=#d5e8d4;strokeColor=#82b366;" parent="1" vertex="1">
          <mxGeometry x="270" y="350" width="10" height="20" as="geometry" />
        </mxCell>
        <mxCell id="qnQCh34TtS-d3TQlevy9-54" value="&lt;p align=&quot;justify&quot; style=&quot;line-height: 120%; font-size: 8px;&quot;&gt;&lt;font style=&quot;font-size: 8px;&quot;&gt;0&lt;/font&gt;&lt;/p&gt;" style="rounded=0;whiteSpace=wrap;html=1;fillColor=#d5e8d4;strokeColor=#82b366;" parent="1" vertex="1">
          <mxGeometry x="280" y="350" width="10" height="20" as="geometry" />
        </mxCell>
        <mxCell id="qnQCh34TtS-d3TQlevy9-55" value="&lt;p align=&quot;justify&quot; style=&quot;line-height: 120%; font-size: 8px;&quot;&gt;&lt;font style=&quot;font-size: 8px;&quot;&gt;0&lt;/font&gt;&lt;/p&gt;" style="rounded=0;whiteSpace=wrap;html=1;fillColor=#d5e8d4;strokeColor=#82b366;" parent="1" vertex="1">
          <mxGeometry x="290" y="350" width="10" height="20" as="geometry" />
        </mxCell>
        <mxCell id="qnQCh34TtS-d3TQlevy9-56" value="&lt;p align=&quot;justify&quot; style=&quot;line-height: 120%; font-size: 8px;&quot;&gt;&lt;font style=&quot;font-size: 8px;&quot;&gt;0&lt;/font&gt;&lt;/p&gt;" style="rounded=0;whiteSpace=wrap;html=1;fillColor=#d5e8d4;strokeColor=#82b366;" parent="1" vertex="1">
          <mxGeometry x="300" y="350" width="10" height="20" as="geometry" />
        </mxCell>
        <mxCell id="qnQCh34TtS-d3TQlevy9-57" value="&lt;p align=&quot;justify&quot; style=&quot;line-height: 120%; font-size: 8px;&quot;&gt;&lt;font style=&quot;font-size: 8px;&quot;&gt;0&lt;/font&gt;&lt;/p&gt;" style="rounded=0;whiteSpace=wrap;html=1;fillColor=#d5e8d4;strokeColor=#82b366;" parent="1" vertex="1">
          <mxGeometry x="310" y="350" width="10" height="20" as="geometry" />
        </mxCell>
        <mxCell id="qnQCh34TtS-d3TQlevy9-73" value="Address Decoding" style="text;html=1;strokeColor=none;fillColor=none;align=center;verticalAlign=middle;whiteSpace=wrap;rounded=0;" parent="1" vertex="1">
          <mxGeometry x="160" y="150" width="120" height="30" as="geometry" />
        </mxCell>
        <mxCell id="qnQCh34TtS-d3TQlevy9-76" style="edgeStyle=orthogonalEdgeStyle;rounded=0;orthogonalLoop=1;jettySize=auto;html=1;entryX=0.5;entryY=0;entryDx=0;entryDy=0;" parent="1" source="qnQCh34TtS-d3TQlevy9-74" target="qnQCh34TtS-d3TQlevy9-32" edge="1">
          <mxGeometry relative="1" as="geometry" />
        </mxCell>
        <mxCell id="qnQCh34TtS-d3TQlevy9-74" value="&lt;div align=&quot;center&quot;&gt;IO Space Enable&lt;/div&gt;" style="text;html=1;strokeColor=none;fillColor=none;align=center;verticalAlign=middle;whiteSpace=wrap;rounded=0;" parent="1" vertex="1">
          <mxGeometry x="35" y="200" width="100" height="30" as="geometry" />
        </mxCell>
        <mxCell id="qnQCh34TtS-d3TQlevy9-81" style="edgeStyle=orthogonalEdgeStyle;rounded=0;orthogonalLoop=1;jettySize=auto;html=1;entryX=0.5;entryY=0;entryDx=0;entryDy=0;" parent="1" source="qnQCh34TtS-d3TQlevy9-79" target="qnQCh34TtS-d3TQlevy9-37" edge="1">
          <mxGeometry relative="1" as="geometry">
            <Array as="points">
              <mxPoint x="115" y="320" />
              <mxPoint x="115" y="320" />
            </Array>
          </mxGeometry>
        </mxCell>
        <mxCell id="qnQCh34TtS-d3TQlevy9-79" value="RAM Bank 1 Bit" style="text;html=1;strokeColor=none;fillColor=none;align=left;verticalAlign=middle;whiteSpace=wrap;rounded=0;" parent="1" vertex="1">
          <mxGeometry x="110" y="260" width="185" height="30" as="geometry" />
        </mxCell>
        <mxCell id="qnQCh34TtS-d3TQlevy9-83" style="edgeStyle=orthogonalEdgeStyle;rounded=0;orthogonalLoop=1;jettySize=auto;html=1;entryX=0.5;entryY=0;entryDx=0;entryDy=0;" parent="1" source="qnQCh34TtS-d3TQlevy9-82" target="qnQCh34TtS-d3TQlevy9-38" edge="1">
          <mxGeometry relative="1" as="geometry">
            <Array as="points">
              <mxPoint x="125" y="330" />
              <mxPoint x="125" y="330" />
            </Array>
          </mxGeometry>
        </mxCell>
        <mxCell id="qnQCh34TtS-d3TQlevy9-82" value="RAM Bank 0 Bit" style="text;html=1;strokeColor=none;fillColor=none;align=left;verticalAlign=middle;whiteSpace=wrap;rounded=0;" parent="1" vertex="1">
          <mxGeometry x="122.5" y="290" width="185" height="30" as="geometry" />
        </mxCell>
        <mxCell id="qnQCh34TtS-d3TQlevy9-106" style="edgeStyle=orthogonalEdgeStyle;rounded=0;orthogonalLoop=1;jettySize=auto;html=1;entryX=0.5;entryY=0;entryDx=0;entryDy=0;" parent="1" source="qnQCh34TtS-d3TQlevy9-89" target="qnQCh34TtS-d3TQlevy9-104" edge="1">
          <mxGeometry relative="1" as="geometry" />
        </mxCell>
        <mxCell id="qnQCh34TtS-d3TQlevy9-89" value="&lt;p style=&quot;line-height: 80%;&quot;&gt;&lt;br&gt;&lt;/p&gt;&lt;p style=&quot;line-height: 80%;&quot;&gt;Not IO and not RAM0&lt;br&gt;&lt;font style=&quot;font-size: 8px;&quot;&gt;(NAND Gate)&lt;br&gt;&lt;/font&gt;&lt;/p&gt;" style="rounded=0;whiteSpace=wrap;html=1;" parent="1" vertex="1">
          <mxGeometry x="212.5" y="550" width="120" height="60" as="geometry" />
        </mxCell>
        <mxCell id="qnQCh34TtS-d3TQlevy9-90" value="IOE" style="rounded=0;whiteSpace=wrap;html=1;" parent="1" vertex="1">
          <mxGeometry x="212.5" y="550" width="50" height="20" as="geometry" />
        </mxCell>
        <mxCell id="qnQCh34TtS-d3TQlevy9-91" value="RAM0" style="rounded=0;whiteSpace=wrap;html=1;" parent="1" vertex="1">
          <mxGeometry x="282.5" y="550" width="50" height="20" as="geometry" />
        </mxCell>
        <mxCell id="qnQCh34TtS-d3TQlevy9-115" style="edgeStyle=orthogonalEdgeStyle;rounded=0;orthogonalLoop=1;jettySize=auto;html=1;entryX=0.5;entryY=0;entryDx=0;entryDy=0;" parent="1" source="qnQCh34TtS-d3TQlevy9-95" target="qnQCh34TtS-d3TQlevy9-112" edge="1">
          <mxGeometry relative="1" as="geometry">
            <Array as="points">
              <mxPoint x="118" y="630" />
              <mxPoint x="388" y="630" />
            </Array>
          </mxGeometry>
        </mxCell>
        <mxCell id="qnQCh34TtS-d3TQlevy9-119" style="edgeStyle=orthogonalEdgeStyle;rounded=0;orthogonalLoop=1;jettySize=auto;html=1;entryX=0.5;entryY=0;entryDx=0;entryDy=0;" parent="1" source="qnQCh34TtS-d3TQlevy9-95" target="qnQCh34TtS-d3TQlevy9-117" edge="1">
          <mxGeometry relative="1" as="geometry" />
        </mxCell>
        <mxCell id="qnQCh34TtS-d3TQlevy9-95" value="&lt;p style=&quot;line-height: 80%;&quot;&gt;&lt;br&gt;&lt;/p&gt;&lt;p style=&quot;line-height: 80%;&quot;&gt;Not IO and RAM0&lt;br&gt;&lt;font style=&quot;font-size: 8px;&quot;&gt;(AND Gate)&lt;br&gt;&lt;/font&gt;&lt;/p&gt;" style="rounded=0;whiteSpace=wrap;html=1;" parent="1" vertex="1">
          <mxGeometry x="57.5" y="550" width="120" height="60" as="geometry" />
        </mxCell>
        <mxCell id="qnQCh34TtS-d3TQlevy9-96" value="&lt;p style=&quot;line-height: 50%;&quot;&gt;IOE&lt;font style=&quot;font-size: 7px;&quot;&gt;&lt;br&gt;&lt;/font&gt;&lt;/p&gt;" style="rounded=0;whiteSpace=wrap;html=1;" parent="1" vertex="1">
          <mxGeometry x="57.5" y="550" width="50" height="20" as="geometry" />
        </mxCell>
        <mxCell id="qnQCh34TtS-d3TQlevy9-97" value="RAM0" style="rounded=0;whiteSpace=wrap;html=1;" parent="1" vertex="1">
          <mxGeometry x="127.5" y="550" width="50" height="20" as="geometry" />
        </mxCell>
        <mxCell id="qnQCh34TtS-d3TQlevy9-100" style="edgeStyle=orthogonalEdgeStyle;rounded=0;orthogonalLoop=1;jettySize=auto;html=1;entryX=0.5;entryY=0;entryDx=0;entryDy=0;" parent="1" source="qnQCh34TtS-d3TQlevy9-99" target="qnQCh34TtS-d3TQlevy9-96" edge="1">
          <mxGeometry relative="1" as="geometry" />
        </mxCell>
        <mxCell id="qnQCh34TtS-d3TQlevy9-99" value="Inverter" style="rounded=0;whiteSpace=wrap;html=1;" parent="1" vertex="1">
          <mxGeometry x="57.5" y="510" width="50" height="20" as="geometry" />
        </mxCell>
        <mxCell id="qnQCh34TtS-d3TQlevy9-103" value="iRAM1" style="rounded=0;whiteSpace=wrap;html=1;" parent="1" vertex="1">
          <mxGeometry x="155" y="750" width="55" height="20" as="geometry" />
        </mxCell>
        <mxCell id="qnQCh34TtS-d3TQlevy9-104" value="comb" style="rounded=0;whiteSpace=wrap;html=1;" parent="1" vertex="1">
          <mxGeometry x="220" y="750" width="55" height="20" as="geometry" />
        </mxCell>
        <mxCell id="qnQCh34TtS-d3TQlevy9-109" style="edgeStyle=orthogonalEdgeStyle;rounded=0;orthogonalLoop=1;jettySize=auto;html=1;entryX=0.5;entryY=0;entryDx=0;entryDy=0;" parent="1" source="qnQCh34TtS-d3TQlevy9-107" target="qnQCh34TtS-d3TQlevy9-103" edge="1">
          <mxGeometry relative="1" as="geometry" />
        </mxCell>
        <mxCell id="qnQCh34TtS-d3TQlevy9-114" style="edgeStyle=orthogonalEdgeStyle;rounded=0;orthogonalLoop=1;jettySize=auto;html=1;entryX=0.5;entryY=0;entryDx=0;entryDy=0;" parent="1" source="qnQCh34TtS-d3TQlevy9-107" target="qnQCh34TtS-d3TQlevy9-111" edge="1">
          <mxGeometry relative="1" as="geometry">
            <Array as="points">
              <mxPoint x="182" y="710" />
              <mxPoint x="322" y="710" />
            </Array>
          </mxGeometry>
        </mxCell>
        <mxCell id="qnQCh34TtS-d3TQlevy9-107" value="Inverter" style="rounded=0;whiteSpace=wrap;html=1;" parent="1" vertex="1">
          <mxGeometry x="157.5" y="650" width="50" height="20" as="geometry" />
        </mxCell>
        <mxCell id="qnQCh34TtS-d3TQlevy9-111" value="iRAM1" style="rounded=0;whiteSpace=wrap;html=1;" parent="1" vertex="1">
          <mxGeometry x="295" y="750" width="55" height="20" as="geometry" />
        </mxCell>
        <mxCell id="qnQCh34TtS-d3TQlevy9-112" value="comb" style="rounded=0;whiteSpace=wrap;html=1;" parent="1" vertex="1">
          <mxGeometry x="360" y="750" width="55" height="20" as="geometry" />
        </mxCell>
        <mxCell id="qnQCh34TtS-d3TQlevy9-132" style="edgeStyle=orthogonalEdgeStyle;rounded=0;orthogonalLoop=1;jettySize=auto;html=1;entryX=0.5;entryY=1;entryDx=0;entryDy=0;" parent="1" source="qnQCh34TtS-d3TQlevy9-116" target="qnQCh34TtS-d3TQlevy9-14" edge="1">
          <mxGeometry relative="1" as="geometry">
            <Array as="points">
              <mxPoint x="80" y="900" />
              <mxPoint x="540" y="900" />
            </Array>
          </mxGeometry>
        </mxCell>
        <mxCell id="qnQCh34TtS-d3TQlevy9-116" value="&lt;p style=&quot;line-height: 60%;&quot;&gt;&lt;br&gt;&lt;/p&gt;&lt;p style=&quot;line-height: 60%;&quot;&gt;RAM1 Enable&lt;br&gt;&lt;font style=&quot;font-size: 8px;&quot;&gt;(AND Gate)&lt;br&gt;&lt;/font&gt;&lt;/p&gt;" style="rounded=0;whiteSpace=wrap;html=1;" parent="1" vertex="1">
          <mxGeometry x="15" y="750" width="120" height="60" as="geometry" />
        </mxCell>
        <mxCell id="qnQCh34TtS-d3TQlevy9-117" value="comb" style="rounded=0;whiteSpace=wrap;html=1;" parent="1" vertex="1">
          <mxGeometry x="15" y="750" width="55" height="20" as="geometry" />
        </mxCell>
        <mxCell id="qnQCh34TtS-d3TQlevy9-118" value="RAM1" style="rounded=0;whiteSpace=wrap;html=1;" parent="1" vertex="1">
          <mxGeometry x="80" y="750" width="55" height="20" as="geometry" />
        </mxCell>
        <mxCell id="qnQCh34TtS-d3TQlevy9-124" value="" style="endArrow=classic;html=1;rounded=0;entryX=1;entryY=0.5;entryDx=0;entryDy=0;" parent="1" target="qnQCh34TtS-d3TQlevy9-57" edge="1">
          <mxGeometry width="50" height="50" relative="1" as="geometry">
            <mxPoint x="520" y="640" as="sourcePoint" />
            <mxPoint x="710" y="510" as="targetPoint" />
            <Array as="points">
              <mxPoint x="520" y="360" />
            </Array>
          </mxGeometry>
        </mxCell>
        <mxCell id="qnQCh34TtS-d3TQlevy9-125" value="" style="endArrow=classic;html=1;rounded=0;entryX=0.5;entryY=0;entryDx=0;entryDy=0;" parent="1" edge="1" target="qnQCh34TtS-d3TQlevy9-13">
          <mxGeometry width="50" height="50" relative="1" as="geometry">
            <mxPoint x="620" y="640" as="sourcePoint" />
            <mxPoint x="620.0000000000002" y="717.1599999999999" as="targetPoint" />
          </mxGeometry>
        </mxCell>
        <mxCell id="qnQCh34TtS-d3TQlevy9-127" value="" style="endArrow=classic;html=1;rounded=0;entryX=0.5;entryY=0;entryDx=0;entryDy=0;" parent="1" edge="1" target="qnQCh34TtS-d3TQlevy9-11">
          <mxGeometry width="50" height="50" relative="1" as="geometry">
            <mxPoint x="860" y="640" as="sourcePoint" />
            <mxPoint x="864.66" y="718" as="targetPoint" />
          </mxGeometry>
        </mxCell>
        <mxCell id="qnQCh34TtS-d3TQlevy9-133" value="ROM Chip of any kind" style="rounded=0;whiteSpace=wrap;html=1;fillColor=#dae8fc;strokeColor=#6c8ebf;" parent="1" vertex="1">
          <mxGeometry x="1000" y="720" width="200" height="80" as="geometry" />
        </mxCell>
        <mxCell id="qnQCh34TtS-d3TQlevy9-134" value="&lt;div style=&quot;line-height: 80%; font-size: 7px;&quot; align=&quot;center&quot;&gt;&lt;font style=&quot;font-size: 7px;&quot;&gt;Chip Enable&lt;/font&gt;&lt;br&gt;&lt;/div&gt;" style="rounded=0;whiteSpace=wrap;html=1;strokeColor=default;align=left;" parent="1" vertex="1">
          <mxGeometry x="1000" y="780" width="40" height="20" as="geometry" />
        </mxCell>
        <mxCell id="xCEEtVQbkKcdHYas92hH-1" value="" style="endArrow=classic;html=1;rounded=0;entryX=0.5;entryY=0;entryDx=0;entryDy=0;" edge="1" parent="1" target="qnQCh34TtS-d3TQlevy9-133">
          <mxGeometry width="50" height="50" relative="1" as="geometry">
            <mxPoint x="1100" y="640" as="sourcePoint" />
            <mxPoint x="870" y="730" as="targetPoint" />
          </mxGeometry>
        </mxCell>
        <mxCell id="xCEEtVQbkKcdHYas92hH-2" value="" style="endArrow=classic;html=1;rounded=0;exitX=0.5;exitY=1;exitDx=0;exitDy=0;" edge="1" parent="1" source="qnQCh34TtS-d3TQlevy9-133">
          <mxGeometry width="50" height="50" relative="1" as="geometry">
            <mxPoint x="900" y="780" as="sourcePoint" />
            <mxPoint x="1100" y="880" as="targetPoint" />
          </mxGeometry>
        </mxCell>
      </root>
    </mxGraphModel>
  </diagram>
</mxfile>
